<svg width="30" height="32" viewBox="0 0 30 32" fill="none" xmlns="http://www.w3.org/2000/svg">
<path d="M10.4901 30.0513V25.1444C10.4901 23.9009 11.4879 22.8907 12.7238 22.8829H17.262C18.5035 22.8829 19.5099 23.8954 19.5099 25.1444V30.0371C19.5099 31.1156 20.3748 31.9921 21.4468 31.9999H24.5429C25.9889 32.0037 27.377 31.4284 28.4008 30.4011C29.4246 29.3737 30 27.9788 30 26.524V12.5853C30 11.4102 29.4822 10.2955 28.5862 9.54158L18.0679 1.07883C16.2292 -0.401403 13.6032 -0.353586 11.819 1.19261L1.52686 9.54158C0.588538 10.2733 0.0277141 11.3913 0 12.5853V26.5098C0 29.5419 2.44323 31.9999 5.45712 31.9999H8.48256C8.99869 32.0037 9.49498 31.8001 9.86127 31.4342C10.2276 31.0684 10.4336 30.5706 10.4336 30.0513H10.4901Z" fill="white"/>
</svg>
