<svg width="237" height="58" viewBox="0 0 237 58" fill="none" xmlns="http://www.w3.org/2000/svg">
<g clip-path="url(#clip0_31_30)">
<path d="M85.664 42.1077L83.1515 35.9555H71.5328L69.0203 42.1077H62.8571L74.6323 14.4842H80.2058L91.9809 42.1077H85.6614H85.664ZM77.3421 21.7317L73.6914 30.6273H80.9929L77.3421 21.7317Z" fill="white"/>
<path d="M106.545 42.4993C103.366 42.4993 101.403 41.0482 99.99 39.3643V48.3751H94.0242V21.1073H99.99V24.1246C101.444 22.1642 103.443 20.7158 106.545 20.7158C111.452 20.7158 116.123 24.5545 116.123 31.5691V31.6485C116.123 38.6631 111.532 42.5018 106.545 42.5018V42.4993ZM110.158 31.5666C110.158 28.0784 107.802 25.7675 105.015 25.7675C102.228 25.7675 99.9131 28.0784 99.9131 31.5666V31.6459C99.9131 35.134 102.228 37.4449 105.015 37.4449C107.802 37.4449 110.158 35.1724 110.158 31.6459V31.5666Z" fill="white"/>
<path d="M129.273 42.5786C122.756 42.5786 117.928 37.7597 117.928 31.7252V31.6459C117.928 25.6114 122.797 20.7132 129.35 20.7132C135.902 20.7132 140.694 25.5321 140.694 31.5666V31.6459C140.694 37.6804 135.826 42.5786 129.273 42.5786ZM134.808 31.6459C134.808 28.5493 132.57 25.8469 129.273 25.8469C125.976 25.8469 123.817 28.4725 123.817 31.5666V31.6459C123.817 34.7425 126.055 37.4449 129.352 37.4449C132.649 37.4449 134.808 34.8192 134.808 31.7252V31.6459Z" fill="white"/>
<path d="M143.719 42.1077V13.504H149.685V42.1077H143.719Z" fill="white"/>
<path d="M154.002 42.1077V13.504H159.968V42.1077H154.002Z" fill="white"/>
<path d="M174.335 42.5786C167.818 42.5786 162.991 37.7597 162.991 31.7252V31.6459C162.991 25.6114 167.859 20.7132 174.412 20.7132C180.965 20.7132 185.757 25.5321 185.757 31.5666V31.6459C185.757 37.6804 180.888 42.5786 174.335 42.5786ZM179.87 31.6459C179.87 28.5493 177.632 25.8469 174.335 25.8469C171.038 25.8469 168.88 28.4725 168.88 31.5666V31.6459C168.88 34.7425 171.118 37.4449 174.415 37.4449C177.712 37.4449 179.87 34.8192 179.87 31.7252V31.6459Z" fill="white"/>
<path d="M197.573 18.2462C196.198 18.2462 195.414 18.9525 195.414 20.5187V21.3427H200.241V26.2026H195.491V42.1103H189.525V26.2026H187.051V21.3044H189.525V19.971C189.525 15.3466 191.84 13.2328 196.042 13.2328C197.926 13.2328 199.183 13.4682 200.282 13.8214V18.758C199.419 18.4432 198.596 18.2487 197.575 18.2487L197.573 18.2462Z" fill="white"/>
<path d="M215.144 42.617C213.534 46.8882 211.809 48.4953 208.235 48.4953C206.076 48.4953 204.466 47.9477 202.936 47.0443L204.938 42.7347C205.723 43.2056 206.705 43.5587 207.489 43.5587C208.509 43.5587 209.058 43.244 209.571 42.187L201.328 21.1073H207.648L212.437 35.4078L217.029 21.1073H223.23L215.144 42.6195V42.617Z" fill="white"/>
<path d="M28.5495 0.155518C12.7827 0.155518 0 12.9155 0 28.6542C0 44.393 12.7827 57.153 28.5495 57.153C44.3164 57.153 57.099 44.393 57.099 28.6542C57.099 12.9155 44.3189 0.155518 28.5495 0.155518ZM16.5436 40.022H8.14492V37.1967H16.5462V40.022H16.5436ZM16.5436 36.4904H8.14492V33.6651H16.5462V36.4904H16.5436ZM16.5436 32.9587H8.14492V30.1334H16.5462V32.9587H16.5436ZM16.5436 29.4271H8.14492V26.6018H16.5462V29.4271H16.5436ZM16.5436 25.8955H8.14492V23.0702H16.5462V25.8955H16.5436ZM26.8523 40.0194H18.4511V37.1941H26.8523V40.0194ZM26.8523 36.4878H18.4511V33.6625H26.8523V36.4878ZM26.8523 32.9562H18.4511V30.1309H26.8523V32.9562ZM26.8523 29.4245H18.4511V26.5992H26.8523V29.4245ZM26.8523 25.8929H18.4511V23.0676H26.8523V25.8929ZM26.8523 22.3613H18.4511V19.536H26.8523V22.3613ZM26.8523 18.8297H18.4511V16.0043H26.8523V18.8297ZM26.8523 15.298H18.4511V12.4727H26.8523V15.298ZM37.161 40.0118H28.7597V37.1865H37.161V40.0118ZM37.161 36.4801H28.7597V33.6548H37.161V36.4801ZM37.161 32.9485H28.7597V30.1232H37.161V32.9485ZM37.161 29.4169H28.7597V26.5916H37.161V29.4169ZM47.4697 40.0092H39.0684V37.1839H47.4697V40.0092ZM47.4697 36.4776H39.0684V33.6523H47.4697V36.4776ZM47.4697 32.9459H39.0684V30.1206H47.4697V32.9459ZM47.4697 29.4143H39.0684V26.589H47.4697V29.4143ZM47.4697 25.8827H39.0684V23.0574H47.4697V25.8827Z" fill="#E7C929"/>
<path d="M228.563 22.3119C228.838 22.2648 229.251 22.2281 229.676 22.2281C230.257 22.2281 230.652 22.3241 230.922 22.5512C231.144 22.7363 231.268 23.0175 231.268 23.358C231.268 23.8785 230.915 24.2313 230.538 24.3675V24.3849C230.825 24.4932 230.999 24.7726 231.102 25.1621C231.228 25.6633 231.334 26.1296 231.418 26.2851H230.657C230.598 26.1663 230.502 25.8362 230.388 25.335C230.274 24.8093 230.084 24.6417 229.664 24.6294H229.293V26.2851H228.563V22.3119ZM229.293 24.0933H229.73C230.227 24.0933 230.538 23.8296 230.538 23.4296C230.538 22.9878 230.227 22.7835 229.748 22.7835C229.515 22.7835 229.364 22.8009 229.293 22.8201V24.0933Z" fill="white"/>
<path d="M229.87 27.9424C228.883 27.9424 227.956 27.5582 227.26 26.8631C226.562 26.1663 226.179 25.2407 226.179 24.2574C226.179 23.2742 226.563 22.3468 227.26 21.6517C227.958 20.9549 228.885 20.5724 229.87 20.5724C230.855 20.5724 231.784 20.9567 232.48 21.6517C233.178 22.3486 233.562 23.2742 233.562 24.2574C233.562 25.2407 233.177 26.168 232.48 26.8631C231.782 27.5599 230.855 27.9424 229.87 27.9424ZM229.87 21.2501C228.21 21.2501 226.859 22.5983 226.859 24.2557C226.859 25.9131 228.21 27.2613 229.87 27.2613C231.53 27.2613 232.881 25.9131 232.881 24.2557C232.881 22.5983 231.53 21.2501 229.87 21.2501Z" fill="white"/>
</g>
<defs>
<clipPath id="clip0_31_30">
<rect width="237" height="57" fill="white" transform="translate(0 0.155518)"/>
</clipPath>
</defs>
</svg>
