<svg width="33" height="22" viewBox="0 0 33 22" fill="none" xmlns="http://www.w3.org/2000/svg">
<path d="M30.7847 9.02777H1.71528C0.767956 9.02777 0 9.79573 0 10.743V10.9236C0 11.8709 0.767956 12.6389 1.71528 12.6389H30.7847C31.732 12.6389 32.5 11.8709 32.5 10.9236V10.743C32.5 9.79573 31.732 9.02777 30.7847 9.02777Z" fill="white"/>
<path d="M30.7847 18.0555H1.71528C0.767956 18.0555 0 18.8235 0 19.7708V19.9514C0 20.8987 0.767956 21.6667 1.71528 21.6667H30.7847C31.732 21.6667 32.5 20.8987 32.5 19.9514V19.7708C32.5 18.8235 31.732 18.0555 30.7847 18.0555Z" fill="white"/>
<path d="M30.7847 0H1.71528C0.767956 0 0 0.767956 0 1.71528V1.89583C0 2.84316 0.767956 3.61111 1.71528 3.61111H30.7847C31.732 3.61111 32.5 2.84316 32.5 1.89583V1.71528C32.5 0.767956 31.732 0 30.7847 0Z" fill="white"/>
</svg>
