<svg width="32" height="33" viewBox="0 0 32 33" fill="none" xmlns="http://www.w3.org/2000/svg">
<g clip-path="url(#clip0_120_268)">
<path fill-rule="evenodd" clip-rule="evenodd" d="M31 16.5C31.001 17.1763 30.6551 17.8058 30.0837 18.1675L19.06 25.1875C18.449 25.5781 17.6739 25.6052 17.0371 25.2582C16.4004 24.9112 16.0029 24.2452 16 23.52V18.8575L6.06 25.1875C5.44903 25.5781 4.67388 25.6052 4.03712 25.2582C3.40036 24.9112 3.00294 24.2452 3 23.52V9.48C3.00294 8.75484 3.40036 8.08876 4.03712 7.74177C4.67388 7.39477 5.44903 7.42188 6.06 7.8125L16 14.1425V9.48C16.0029 8.75484 16.4004 8.08876 17.0371 7.74177C17.6739 7.39477 18.449 7.42188 19.06 7.8125L30.0837 14.8325C30.6551 15.1942 31.001 15.8237 31 16.5Z" fill="white"/>
</g>
<defs>
<clipPath id="clip0_120_268">
<rect width="32" height="32" fill="white" transform="translate(0 0.5)"/>
</clipPath>
</defs>
</svg>
