<?xml version="1.0" encoding="utf-8"?>
<!-- Generator: Adobe Illustrator 27.0.0, SVG Export Plug-In . SVG Version: 6.00 Build 0)  -->
<svg version="1.1" id="Capa_1" xmlns="http://www.w3.org/2000/svg" xmlns:xlink="http://www.w3.org/1999/xlink" x="0px" y="0px"
	 viewBox="0 0 141.73 141.73" style="enable-background:new 0 0 141.73 141.73;" xml:space="preserve">
<style type="text/css">
	.st0{fill:#FFFFFF;}
</style>
<path class="st0" d="M105.21,12.27c8.08,0,15.68,3.15,21.4,8.86c5.72,5.72,8.86,13.32,8.86,21.4c0,6.39-0.93,12.81-2.77,19.06
	c-1.68,5.74-4.17,11.49-7.39,17.1c-5.51,9.6-13.25,18.95-22.99,27.79c-8.79,7.98-17.61,14.04-23.46,17.72
	c-3.33,2.09-6.1,3.67-7.99,4.71c-1.9-1.04-4.67-2.62-7.99-4.71c-10.6-6.67-18.61-13.32-23.46-17.72
	c-9.74-8.84-17.48-18.19-22.99-27.79c-3.22-5.6-5.7-11.36-7.39-17.1c-1.84-6.26-2.77-12.67-2.77-19.06c0-8.08,3.15-15.68,8.86-21.4
	c5.72-5.72,13.32-8.86,21.4-8.86c7.95,0,15.08,3.46,21.19,10.28c6.97,8.55,12.93,19.99,12.93,19.99s6.17-11.16,13.28-19.69
	C90.21,15.82,97.36,12.27,105.21,12.27 M105.21,5.97c-23.43,0-34.33,25.35-34.33,25.35S60.52,5.97,36.55,5.97
	c-20.19,0-36.56,16.37-36.56,36.56c0,58.89,70.89,93.5,70.89,93.5s70.89-34.61,70.89-93.5C141.77,22.34,125.4,5.97,105.21,5.97
	L105.21,5.97z"/>
</svg>
