<svg width="58" height="58" viewBox="0 0 58 58" fill="none" xmlns="http://www.w3.org/2000/svg">
<path d="M28.5495 0.155518C12.7827 0.155518 0 12.9155 0 28.6542C0 44.393 12.7827 57.153 28.5495 57.153C44.3164 57.153 57.099 44.393 57.099 28.6542C57.099 12.9155 44.3189 0.155518 28.5495 0.155518ZM16.5436 40.022H8.14492V37.1967H16.5462V40.022H16.5436ZM16.5436 36.4904H8.14492V33.6651H16.5462V36.4904H16.5436ZM16.5436 32.9587H8.14492V30.1334H16.5462V32.9587H16.5436ZM16.5436 29.4271H8.14492V26.6018H16.5462V29.4271H16.5436ZM16.5436 25.8955H8.14492V23.0702H16.5462V25.8955H16.5436ZM26.8523 40.0194H18.4511V37.1941H26.8523V40.0194ZM26.8523 36.4878H18.4511V33.6625H26.8523V36.4878ZM26.8523 32.9562H18.4511V30.1309H26.8523V32.9562ZM26.8523 29.4245H18.4511V26.5992H26.8523V29.4245ZM26.8523 25.8929H18.4511V23.0676H26.8523V25.8929ZM26.8523 22.3613H18.4511V19.536H26.8523V22.3613ZM26.8523 18.8297H18.4511V16.0043H26.8523V18.8297ZM26.8523 15.298H18.4511V12.4727H26.8523V15.298ZM37.161 40.0118H28.7597V37.1865H37.161V40.0118ZM37.161 36.4801H28.7597V33.6548H37.161V36.4801ZM37.161 32.9485H28.7597V30.1232H37.161V32.9485ZM37.161 29.4169H28.7597V26.5916H37.161V29.4169ZM47.4697 40.0092H39.0684V37.1839H47.4697V40.0092ZM47.4697 36.4776H39.0684V33.6523H47.4697V36.4776ZM47.4697 32.9459H39.0684V30.1206H47.4697V32.9459ZM47.4697 29.4143H39.0684V26.589H47.4697V29.4143ZM47.4697 25.8827H39.0684V23.0574H47.4697V25.8827Z" fill="#E7C929"/>
</svg>
