<svg width="58" height="58" viewBox="0 0 58 58" fill="none" xmlns="http://www.w3.org/2000/svg">
<path d="M57 29C57 44.4612 44.4612 57 29 57C13.5388 57 1 44.4612 1 29C1 13.5388 13.5388 1 29 1C44.4612 1 57 13.5388 57 29Z" stroke="#E7C929" stroke-width="2" stroke-miterlimit="10"/>
<path d="M23.7086 17H23.8762C25.3701 17 26.5848 18.2147 26.5848 19.7086V38.0268C26.5848 39.5207 25.3701 40.7354 23.8762 40.7354H23.7086C22.2147 40.7354 21 39.5207 21 38.0268V19.7226C21 18.2287 22.2147 17.014 23.7086 17.014V17Z" fill="#E7C929"/>
<path d="M34.8782 17H35.0457C36.5397 17 37.7544 18.2147 37.7544 19.7086V38.0268C37.7544 39.5207 36.5397 40.7354 35.0457 40.7354H34.8782C33.3843 40.7354 32.1696 39.5207 32.1696 38.0268V19.7226C32.1696 18.2287 33.3843 17.014 34.8782 17.014V17Z" fill="#E7C929"/>
</svg>
