<svg width="32" height="33" viewBox="0 0 32 33" fill="none" xmlns="http://www.w3.org/2000/svg">
<g clip-path="url(#clip0_120_261)">
<path fill-rule="evenodd" clip-rule="evenodd" d="M29 9.48V23.52C28.9962 24.2448 28.5987 24.9102 27.9622 25.2571C27.3258 25.6039 26.5511 25.5772 25.94 25.1875L16 18.8575V23.52C15.9962 24.2448 15.5987 24.9102 14.9622 25.2571C14.3258 25.6039 13.5511 25.5772 12.94 25.1875L1.91625 18.1675C1.34542 17.8052 0.999583 17.1761 0.999583 16.5C0.999583 15.8239 1.34542 15.1948 1.91625 14.8325L12.94 7.8125C13.551 7.42188 14.3261 7.39477 14.9629 7.74177C15.5996 8.08876 15.9971 8.75484 16 9.48V14.1425L25.94 7.8125C26.551 7.42188 27.3261 7.39477 27.9629 7.74177C28.5996 8.08876 28.9971 8.75484 29 9.48Z" fill="white"/>
</g>
<defs>
<clipPath id="clip0_120_261">
<rect width="32" height="32" fill="white" transform="translate(0 0.5)"/>
</clipPath>
</defs>
</svg>
